<svg width="15" height="20" viewBox="0 0 15 20" fill="none" xmlns="http://www.w3.org/2000/svg">
<path d="M7.36279 0C3.30314 0 0 3.30314 0 7.3632C0 8.42222 0.216757 9.43334 0.643926 10.3687C2.48483 14.3971 6.01435 18.6501 7.05249 19.8575C7.13027 19.9478 7.24366 19.9998 7.36299 19.9998C7.48232 19.9998 7.59571 19.9478 7.67349 19.8575C8.71123 18.6503 12.2407 14.3975 14.0823 10.3687C14.5096 9.43334 14.7262 8.42222 14.7262 7.3632C14.7258 3.30314 11.4226 0 7.36279 0ZM7.36279 11.1877C5.25396 11.1877 3.53812 9.47182 3.53812 7.36299C3.53812 5.25396 5.25396 3.53812 7.36279 3.53812C9.47162 3.53812 11.1875 5.25396 11.1875 7.36299C11.1877 9.47182 9.47182 11.1877 7.36279 11.1877Z" fill="#6644AA"/>
</svg>
