<svg width="24" height="24" viewBox="0 0 24 24" fill="none" xmlns="http://www.w3.org/2000/svg">
<path d="M16.2256 12L22.5467 18.9347C22.9726 18.3971 23.204 17.7311 23.2029 17.0452V6.95437C23.204 6.26861 22.9726 5.60273 22.5467 5.06531L16.2256 12Z" fill="#6644AA"/>
<path d="M0.79688 17.0452C0.795657 17.7311 1.027 18.3972 1.45313 18.9347L7.77422 12L1.45313 5.06531C1.027 5.60264 0.795652 6.26858 0.79688 6.95437V17.0452Z" fill="#6644AA"/>
<path d="M14.8683 13.4892C14.5046 13.8881 14.0616 14.2069 13.5677 14.4249C13.0739 14.643 12.5399 14.7556 12 14.7556C11.4601 14.7556 10.9262 14.643 10.4323 14.4249C9.93841 14.2069 9.49546 13.8881 9.13174 13.4892L8.15627 12.4176L1.84033 19.3434C2.39509 19.8323 3.10995 20.1007 3.84939 20.0976H20.1502C20.8899 20.1006 21.605 19.8322 22.1602 19.3434L15.8438 12.4176L14.8683 13.4892Z" fill="#6644AA"/>
<path d="M1.84033 4.65657L9.54752 13.11C9.85845 13.4513 10.2372 13.7239 10.6595 13.9104C11.0818 14.0969 11.5384 14.1933 12 14.1933C12.4617 14.1933 12.9183 14.0969 13.3406 13.9104C13.7629 13.7239 14.1416 13.4513 14.4525 13.11L22.1602 4.65657C21.6051 4.16757 20.8899 3.89907 20.1502 3.90188H3.84939C3.1099 3.89899 2.39504 4.16752 1.84033 4.65657Z" fill="#6644AA"/>
</svg>
