<svg width="21" height="21" viewBox="0 0 21 21" fill="none" xmlns="http://www.w3.org/2000/svg">
<path d="M17.0528 13.0298L20.1351 14.8684C20.4454 15.0542 20.6905 15.3315 20.8367 15.6622C20.9829 15.9929 21.0231 16.3608 20.9518 16.7153C20.8133 17.4246 20.5306 18.0979 20.1214 18.6936C19.7121 19.2893 19.185 19.7947 18.5726 20.1784C17.9601 20.5622 17.2755 20.8162 16.5609 20.9246C15.8464 21.0331 15.1172 20.9938 14.4184 20.8091C11.0127 19.8753 7.90862 18.0712 5.41142 15.5742C2.91421 13.0772 1.10986 9.97326 0.175779 6.56759C-0.00912037 5.86902 -0.0486668 5.13994 0.0595881 4.42546C0.167843 3.71099 0.421595 3.02635 0.805136 2.41391C1.18868 1.80147 1.69384 1.27427 2.28936 0.864948C2.88488 0.455627 3.55808 0.172896 4.26728 0.0342577H4.28595C4.64212 -0.0372709 5.01173 0.00381945 5.34349 0.151829C5.67526 0.299839 5.95274 0.54743 6.13745 0.860258L7.96211 3.93209C8.27371 4.46 8.37081 5.08735 8.2334 5.68476C8.09599 6.28216 7.73454 6.80404 7.22361 7.14276L5.29045 8.43192C6.65884 11.7104 9.26147 14.3193 12.5366 15.6956L13.8374 13.7531C14.1788 13.2437 14.7026 12.8847 15.3008 12.7501C15.8991 12.6155 16.5262 12.7156 17.0528 13.0298ZM17.1986 8.16009C17.1971 7.00024 16.7356 5.88834 15.9155 5.0682C15.0954 4.24807 13.9835 3.78663 12.8236 3.78509C12.5915 3.78509 12.369 3.87728 12.2049 4.04137C12.0408 4.20547 11.9486 4.42803 11.9486 4.66009C11.9486 4.89216 12.0408 5.11472 12.2049 5.27881C12.369 5.4429 12.5915 5.53509 12.8236 5.53509C13.5195 5.53602 14.1867 5.81288 14.6787 6.30496C15.1708 6.79704 15.4477 7.46418 15.4486 8.16009C15.4486 8.39216 15.5408 8.61471 15.7049 8.77881C15.869 8.9429 16.0915 9.03509 16.3236 9.03509C16.5557 9.03509 16.7782 8.9429 16.9423 8.77881C17.1064 8.61471 17.1986 8.39216 17.1986 8.16009ZM19.8236 9.03509C19.5916 9.03509 19.369 8.9429 19.2049 8.77881C19.0408 8.61471 18.9486 8.39216 18.9486 8.16009C18.9468 6.53621 18.3009 4.97937 17.1526 3.83111C16.0043 2.68285 14.4475 2.03694 12.8236 2.03509C12.5915 2.03509 12.369 1.9429 12.2049 1.77881C12.0408 1.61472 11.9486 1.39216 11.9486 1.16009C11.9486 0.928026 12.0408 0.705467 12.2049 0.541372C12.369 0.377278 12.5915 0.285091 12.8236 0.285091C14.9114 0.287561 16.913 1.11804 18.3894 2.59435C19.8657 4.07067 20.6961 6.07227 20.6986 8.16009C20.6986 8.39216 20.6064 8.61471 20.4423 8.77881C20.2782 8.9429 20.0557 9.03509 19.8236 9.03509Z" fill="#6B4BAD"/>
</svg>
